# xmcd
#
# Track frame offsets:
# 150
# 10905
# 23778
# 34144
# 42196
# 50193
# 58246
# 66744
# 79367
# 88813
# 100348
# 110825
# 124060
# 133423
# 144234
# 152872
# 163516
# 171178
#
# Disc length: 2286 seconds
#
# Revision: 0
# Processed by: cddbd v1.5.2PL0 Copyright (c) Steve Scherf et al.
# Submitted via: Audion 3.0.2 (http://www.panic.com/audion/)
#
DISCID=0e08ec12
DTITLE=Jacques Brel - Les légendes de la Chanson Française
DYEAR=1900
DGENRE=
TTITLE0=Quand on a que l'amour
TTITLE1=Les pieds dans le ruisseau
TTITLE2=Saint Pierre
TTITLE3=Les Blés
TTITLE4=Qu'avons nous fait?
TTITLE5=Grand Jacques
TTITLE6=La haine
TTITLE7=sur la place
TTITLE8=C'est comme ça
TTITLE9=Les carreaux
TTITLE10=Il y a
TTITLE11=La Bastille
TTITLE12=S'il te faut
TTITLE13=Le diable
TTITLE14=Le fou du roi
TTITLE15=Il nous faut regarder
TTITLE16=Il peut pleuvoirl
TTITLE17=La foire
EXTD=
EXTT0=
EXTT1=
EXTT2=
EXTT3=
EXTT4=
EXTT5=
EXTT6=
EXTT7=
EXTT8=
EXTT9=
EXTT10=
EXTT11=
EXTT12=
EXTT13=
EXTT14=
EXTT15=
EXTT16=
EXTT17=
PLAYORDER=
